<?xml version="1.0" encoding="UTF-8" standalone="no"?>
<!DOCTYPE svg PUBLIC "-//W3C//DTD SVG 1.1//EN"
"http://www.w3.org/Graphics/SVG/1.1/DTD/svg11.dtd">


<!-- Page 1 -->
<svg x="0" y="0" width="100%" height="100%" viewBox="0 0 3671 2603" version="1.1" xmlns="http://www.w3.org/2000/svg" xmlns:xlink="http://www.w3.org/1999/xlink"
style="display: block;margin-left: auto;margin-right: auto;">
<defs>

<style type="text/css"><![CDATA[

.g0_1{
fill: none;
stroke: #000000;
stroke-width: 15.277778;
stroke-linecap: butt;
stroke-linejoin: miter;
}
.g1_1{
fill: none;
stroke: #FFFFFF;
stroke-width: 15.277778;
stroke-linecap: butt;
stroke-linejoin: miter;
}
.g2_1{
fill: none;
stroke: #FFFFFF;
stroke-width: 21.38889;
stroke-linecap: butt;
stroke-linejoin: miter;
}

]]></style>

</defs>
<path d="M0,0
L0,2603
L3671,2603
L3671,0 Z " 
fill="#FFFFFF" stroke="none" />
<path d="M2017.9,2596H210.2V1702.5H2017.9V2596ZM757.8,1515.2h-566V847.4h566v667.8ZM3085.9,874.8H2203.7V7.6h882.2V874.8ZM1069.4,1515.2H757.8V847.4h311.6v667.8Zm948.5,0H1648.1V847.4h369.8v667.8Zm-656.3,0H1069.4V847.4h292.2v667.8Zm286.5,0H1361.6V847.4h286.5v667.8Zm369.8,-411.4h185.8m0,-229v297.6M2429,874.8v297.6m-226.8,-7.2h77.5m1017,0H2429m-411.1,537.3h193" class="g0_1" />
<path d="M522.4,1702.5H631.5m1016.6,0h109.1" class="g1_1" />
<path d="M7.6,1702.5H210.2M7.6,1515.2H210.2M7.6,1507.6v202.5m2195.8,-336v862.8m.3,-854.9h193m160.4,-7.9v862.8m-348.3,-8H3663.5m-1102.7,-277h219.6M2556.3,1382h219.5m0,98.4V1374.1m4.6,584.8V1839.2m0,-135.7v-90.4m883.1,615.8V1374.1m-248.6,564.5V1359.7m-7.6,578.9h256.2M3539.2,1460.1v366.8m47.4,-459.5h84.5m-259.2,0h67.4m-188.9,44.8h84.4m-83.9,472.6h82.4m-76.6,-475.2c0,0,-184.5,233.5,0,478.1" class="g0_1" />
<path d="M1839.7,1515.2h73.6m-466.5,0h73.6m-278.3,0h73.6m-449.5,0h73.6m-273,0h73.6" class="g1_1" />
<path d="M2313,874.8h107.5" class="g2_1" />
<path d="M3404.2,867.4v306m0,-298.6H3085.9m-232.5,290.4V875.8m550.8,289.4h266.9" class="g0_1" />

</svg>
